<?xml version="1.0" encoding="utf-8"?>
<!-- Generator: Adobe Illustrator 21.1.0, SVG Export Plug-In . SVG Version: 6.00 Build 0)  -->
<svg version="1.1" id="Layer_1" xmlns="http://www.w3.org/2000/svg" xmlns:xlink="http://www.w3.org/1999/xlink" x="0px" y="0px"
	 viewBox="0 0 179 80" style="enable-background:new 0 0 179 80;" xml:space="preserve">
<style type="text/css">
	.st0{opacity:0.7;fill-rule:evenodd;clip-rule:evenodd;fill:#00A2DA;}
	.st1{opacity:0.8;fill-rule:evenodd;clip-rule:evenodd;fill:#245E90;}
	.st2{fill:#265E90;}
	.st3{fill:#00A9DC;}
	.st4{fill:#9AA1A8;}
	.st5{opacity:0.35;}
	.st6{fill:#6D7477;}
	.st7{fill:none;}
	.st8{font-family:'ArialMT';}
	.st9{font-size:9.2188px;}
</style>
<g>
	<path class="st0" d="M20.8,33.1c-0.3-1.8-0.4-3.8-0.3-5.7c0-1.9,0.2-3.7,0.5-5.6L13,21c-0.6,3.7-0.9,7.3-0.9,10.8
		c0,3.3,0.2,6.5,0.8,9.5L20.8,33.1L20.8,33.1z M45.9,40.6c-0.5,0.5-1,1-1.6,1.5c-3.9,3.3-7.7,4.7-11.3,4.7l-1.6,18
		c0.1,0,0.2,0,0.3,0.1c6.9,1.1,14.3-0.3,22.7-6.1c0.8-0.5,1.6-1.1,2.3-1.8L45.9,40.6L45.9,40.6z M23,40.1c-0.8-1.2-1.4-2.5-2-3.9
		l-8,8.3c1.1,3.4,2.6,6.6,4.4,9.3c3.2,4.8,7.2,8,11.7,9.9l1.5-17.3C27.7,45.3,25.1,43.2,23,40.1L23,40.1z"/>
	<path class="st1" d="M19.7,18.2c1.8-2.4,3.8-4.6,6.2-6.7L23.1,1c-4.7,4.5-8.6,9.1-11.7,13.9L19.7,18.2L19.7,18.2z M38.7,46.4
		c-0.7,0.4-1.4,0.7-2.2,1c-5.2,2.3-9.7,2.6-13.4,1.6l-8.1,18.4c0.1,0,0.2,0.1,0.3,0.1c6.7,3.3,15,4.1,25.8,0.4c1-0.3,2-0.7,3.1-1.2
		L38.7,46.4L38.7,46.4z M15.8,38.8c-0.4-1.5-0.6-3.1-0.7-4.7L3.8,40.5c-0.1,3.9,0.3,7.7,1.3,11.1c1.6,6,4.7,10.7,8.7,14l7.8-17.8
		C18.8,45.8,16.8,42.8,15.8,38.8L15.8,38.8z M14.9,31.7c0.4-2,0.9-4.1,1.7-6.1c0.7-1.9,1.6-3.9,2.6-5.8l-8.1-3.2
		C9.2,20.3,7.6,24,6.3,27.7C5.1,31.1,4.3,34.6,3.7,38L14.9,31.7L14.9,31.7z"/>
</g>
<g>
	<g>
		<g>
			<path class="st2" d="M64,39.2h-7.5l-14-15.7c-0.9-1.1-1.9-2.3-2.8-3.8v19.5h-6V12.5h6.7l15,16.3c0.9,1,1.8,2.2,2.6,3.5V12.5h6
				V39.2z"/>
			<path class="st2" d="M98.3,31.2c0,2.2-0.8,4.1-2.3,5.7c-1.6,1.6-3.4,2.3-5.6,2.3H67.5V12.5h22.9c2.2,0,4.1,0.7,5.5,2
				c1.5,1.4,2.2,3.1,2.2,5.3c0,1.1-0.3,2.2-0.8,3.3c-0.6,1.2-1.4,1.9-2.4,2.3c1.1,0.4,1.9,1.2,2.6,2.3C98,28.8,98.3,30,98.3,31.2z
				 M92.3,20.6c0-0.6-0.2-1.1-0.5-1.5c-0.4-0.4-0.8-0.6-1.4-0.6H73.5v4.1h16.9c0.6,0,1.1-0.2,1.4-0.6C92.2,21.7,92.3,21.2,92.3,20.6
				z M92.3,30.9c0-0.6-0.2-1.2-0.5-1.6c-0.4-0.4-0.8-0.6-1.5-0.6H73.5v4.5h16.9c0.6,0,1.1-0.2,1.5-0.7
				C92.2,32.1,92.3,31.5,92.3,30.9z"/>
			<path class="st2" d="M131.7,31.2c0,2.2-0.8,4.1-2.3,5.7c-1.6,1.6-3.4,2.3-5.6,2.3h-22.8V12.5h22.9c2.2,0,4.1,0.7,5.5,2
				c1.5,1.4,2.2,3.1,2.2,5.3c0,1.1-0.3,2.2-0.8,3.3c-0.6,1.2-1.4,1.9-2.4,2.3c1.1,0.4,1.9,1.2,2.6,2.3
				C131.4,28.8,131.7,30,131.7,31.2z M125.7,20.6c0-0.6-0.2-1.1-0.5-1.5c-0.4-0.4-0.8-0.6-1.4-0.6h-16.9v4.1h16.9
				c0.6,0,1.1-0.2,1.4-0.6C125.5,21.7,125.7,21.2,125.7,20.6z M125.7,30.9c0-0.6-0.2-1.2-0.5-1.6c-0.4-0.4-0.8-0.6-1.5-0.6h-16.9
				v4.5h16.9c0.6,0,1.1-0.2,1.5-0.7C125.5,32.1,125.7,31.5,125.7,30.9z"/>
			<path class="st2" d="M140.5,39.2h-6V12.5h6V39.2z"/>
		</g>
		<g>
			<path class="st3" d="M62.5,37.7H55l-14-15.7c-0.9-1.1-1.9-2.3-2.7-3.8v19.5h-6V11h6.7l15,16.3c0.9,1,1.8,2.1,2.7,3.5V11h6V37.7z"
				/>
			<path class="st3" d="M96.8,29.7c0,2.2-0.8,4.1-2.3,5.7c-1.6,1.6-3.4,2.3-5.6,2.3H66V11h22.9c2.2,0,4.1,0.7,5.5,2
				c1.5,1.4,2.2,3.1,2.2,5.4c0,1.1-0.3,2.2-0.8,3.3c-0.6,1.2-1.4,1.9-2.4,2.3c1.1,0.4,1.9,1.2,2.6,2.3
				C96.5,27.3,96.8,28.4,96.8,29.7z M90.8,19.1c0-0.6-0.2-1.1-0.5-1.5c-0.4-0.4-0.8-0.6-1.4-0.6H71.9v4.1h16.9
				c0.6,0,1.1-0.2,1.4-0.6C90.6,20.1,90.8,19.7,90.8,19.1z M90.8,29.4c0-0.6-0.2-1.2-0.5-1.6c-0.4-0.4-0.8-0.6-1.5-0.6H71.9v4.5
				h16.9c0.6,0,1.1-0.2,1.5-0.7C90.6,30.6,90.8,30,90.8,29.4z"/>
			<path class="st3" d="M130.1,29.7c0,2.2-0.8,4.1-2.3,5.7c-1.6,1.6-3.4,2.3-5.6,2.3H99.3V11h22.9c2.2,0,4.1,0.7,5.5,2
				c1.5,1.4,2.2,3.1,2.2,5.4c0,1.1-0.3,2.2-0.8,3.3c-0.6,1.2-1.4,1.9-2.4,2.3c1.1,0.4,1.9,1.2,2.6,2.3
				C129.8,27.3,130.1,28.4,130.1,29.7z M124.2,19.1c0-0.6-0.2-1.1-0.5-1.5c-0.4-0.4-0.8-0.6-1.4-0.6h-16.9v4.1h16.9
				c0.6,0,1.1-0.2,1.4-0.6C124,20.1,124.2,19.7,124.2,19.1z M124.2,29.4c0-0.6-0.2-1.2-0.5-1.6c-0.4-0.4-0.8-0.6-1.5-0.6h-16.9v4.5
				h16.9c0.6,0,1.1-0.2,1.5-0.7S124.2,30,124.2,29.4z"/>
			<path class="st3" d="M139,37.7h-6V11h6V37.7z"/>
		</g>
	</g>
</g>
<g>
	<path class="st4" d="M54.1,46.2v2.7h-1.2v-5.5H54l0.8,2.6v-2.6H56v5.5h-1L54.1,46.2z"/>
	<path class="st4" d="M58.3,47.9h-0.7l-0.1,1h-1.2l0.8-5.5h1.8l0.8,5.5h-1.3L58.3,47.9z M57.9,44.6l-0.2,2.3h0.6L58,44.6H57.9z"/>
	<path class="st4" d="M60,43.4h2.7v1h-0.7v4.5h-1.3v-4.5H60V43.4z"/>
	<path class="st4" d="M63.2,43.4h1.3v5.5h-1.3V43.4z"/>
	<path class="st4" d="M65.7,43.4H67l0.9,0.8v3.9l-0.8,0.8h-1.4l-0.8-0.8v-3.9L65.7,43.4z M66.1,44.4v3.4h0.5v-3.4H66.1z"/>
	<path class="st4" d="M69.5,46.2v2.7h-1.2v-5.5h1.1l0.8,2.6v-2.6h1.2v5.5h-1L69.5,46.2z"/>
	<path class="st4" d="M73.6,47.9h-0.7l-0.1,1h-1.2l0.8-5.5h1.8l0.8,5.5h-1.3L73.6,47.9z M73.1,44.6l-0.2,2.3h0.6l-0.2-2.3H73.1z"/>
	<path class="st4" d="M75.5,43.4h1.3v4.5h1.1v1h-2.4V43.4z"/>
	<path class="st4" d="M82.9,46.1l0.7,0.5v1.5l-0.8,0.8h-2.2v-5.5h2.2l0.7,0.7v1.5L82.9,46.1z M82.3,44.4h-0.5v1.2h0.5V44.4z
		 M82.3,46.6h-0.5v1.2h0.5V46.6z"/>
	<path class="st4" d="M84.2,43.4h2.3v1.1h-1.1v1h0.9v1h-0.9v1.4h1.1v1h-2.4V43.4z"/>
	<path class="st4" d="M88.2,46.2v2.7H87v-5.5h1.1l0.8,2.6v-2.6h1.2v5.5h-1L88.2,46.2z"/>
	<path class="st4" d="M90.6,43.4h2.3v1.1h-1.1v1h0.9v1h-0.9v1.4h1.1v1h-2.4V43.4z"/>
	<path class="st4" d="M93.3,43.4h2.5v1h-1.2v1h1v1h-1v2.4h-1.3V43.4z"/>
	<path class="st4" d="M96.3,43.4h1.3v5.5h-1.3V43.4z"/>
	<path class="st4" d="M97.7,43.4h2.7v1h-0.7v4.5h-1.3v-4.5h-0.7V43.4z"/>
	<path class="st4" d="M105.3,46.1l0.7,0.5v1.5l-0.8,0.8H103v-5.5h2.2l0.7,0.7v1.5L105.3,46.1z M104.8,44.4h-0.5v1.2h0.5V44.4z
		 M104.8,46.6h-0.5v1.2h0.5V46.6z"/>
	<path class="st4" d="M108.5,47.8v-4.5h1.3v4.7l-0.8,0.8h-1.4l-0.8-0.8v-4.7h1.3v4.5H108.5z"/>
	<path class="st4" d="M110.3,43.4h1.3v5.5h-1.3V43.4z"/>
	<path class="st4" d="M112,43.4h1.3v4.5h1.1v1H112V43.4z"/>
	<path class="st4" d="M114.9,43.4h2.2l0.9,0.8v3.9l-0.8,0.8h-2.2V43.4z M116.6,44.4h-0.5v3.4h0.5V44.4z"/>
	<path class="st4" d="M118.4,43.4h2.3v1.1h-1.1v1h0.9v1h-0.9v1.4h1.1v1h-2.4V43.4z"/>
	<path class="st4" d="M123,46.7h-0.5v2.2h-1.3v-5.5h2.2l0.9,0.8v1.4l-0.6,0.5l0.6,0.5v2.2H123V46.7z M123,44.4h-0.5v1.2h0.5V44.4z"
		/>
	<path class="st4" d="M126.5,44.4h-0.5v1.1l0.9,0.1l0.9,0.8v1.7l-0.8,0.8h-1.4l-0.8-0.8v-1h1.3v0.7h0.5v-1.2l-0.9-0.1l-0.9-0.8v-1.7
		l0.8-0.8h1.3l0.9,0.8v1h-1.2V44.4z"/>
	<path class="st4" d="M128.7,48.9h-0.6v-1.1h1.3v0.9l-0.7,1l-0.4-0.3L128.7,48.9z"/>
	<path class="st4" d="M132.2,43.4h1.3v5.5h-1.3V43.4z"/>
	<path class="st4" d="M135.4,46.2v2.7h-1.2v-5.5h1.1l0.8,2.6v-2.6h1.2v5.5h-1L135.4,46.2z"/>
	<path class="st4" d="M139.5,44.4h-0.6v3.4h0.6v-1.3h1.2v1.6l-0.8,0.8h-1.3l-0.9-0.8v-3.9l0.8-0.8h1.4l0.8,0.8v1.3h-1.2V44.4z"/>
	<path class="st4" d="M141.2,47.8h1.3v1.1h-1.3V47.8z"/>
</g>
<g class="st5">
	<path class="st6" d="M1.9,73.5h6.2v1.1H6.4v4.9H3.5v-4.9H1.9V73.5z"/>
	<path class="st6" d="M13,76v-2.5h2.9v6.1H13v-2.5h-1.2v2.5H8.8v-6.1h2.9V76H13z"/>
	<path class="st6" d="M16.9,73.5h5.4v1.2h-2.4v1.1h2v1.1h-2v1.5h2.5v1.1h-5.4V73.5z"/>
	<path class="st6" d="M31.3,77.5v2.1h-2.9v-6.1h4.8l2,0.9v2.3l-2,0.9H31.3z M32.3,74.6h-1.1v1.7h1.1V74.6z"/>
	<path class="st6" d="M39.8,78.4h-1.7l-0.2,1.1H35l1.8-6.1H41l1.9,6.1H40L39.8,78.4z M38.8,74.8l-0.4,2.5h1.3l-0.5-2.5H38.8z"/>
	<path class="st6" d="M48.4,77.1h-1.2v2.4h-2.9v-6.1h5l2,0.9V76l-1.4,0.6l1.4,0.6v2.4h-2.8V77.1z M48.4,74.6h-1.2V76h1.2V74.6z"/>
	<path class="st6" d="M51.7,73.5h6.2v1.1h-1.6v4.9h-2.9v-4.9h-1.7V73.5z"/>
	<path class="st6" d="M61.6,76.6v3h-2.7v-6.1h2.4l1.9,2.9v-2.9H66v6.1h-2.4L61.6,76.6z"/>
	<path class="st6" d="M67,73.5h5.4v1.2H70v1.1h2v1.1h-2v1.5h2.5v1.1H67V73.5z"/>
	<path class="st6" d="M77.7,77.1h-1.2v2.4h-2.9v-6.1h5l2,0.9V76L79,76.6l1.4,0.6v2.4h-2.8V77.1z M77.7,74.6h-1.2V76h1.2V74.6z"/>
	<path class="st6" d="M90.7,73.5h2.9L91.1,77v2.5h-2.9V77l-2.5-3.5h2.9l1.1,2.2L90.7,73.5z"/>
	<path class="st6" d="M96.1,73.5h3.1l2,0.9v4.3l-1.8,0.9h-3.2l-1.9-0.9v-4.3L96.1,73.5z M97.2,74.6v3.8h1.2v-3.8H97.2z"/>
	<path class="st6" d="M106.5,78.4v-4.9h2.9v5.2l-1.9,0.9h-3.3l-1.9-0.9v-5.2h2.9v4.9H106.5z"/>
	<path class="st6" d="M118.3,77v2.6h-2.9v-6.1h2.9v2.6l1.9-2.6h3l-2.5,2.8l2.9,3.2h-3.1L118.3,77z"/>
	<path class="st6" d="M124.2,73.5h5.4v1.2h-2.4v1.1h2v1.1h-2v1.5h2.5v1.1h-5.4V73.5z"/>
	<path class="st6" d="M130.6,73.5h5.4v1.2h-2.4v1.1h2v1.1h-2v1.5h2.5v1.1h-5.4V73.5z"/>
	<path class="st6" d="M140,77.5v2.1h-2.9v-6.1h4.8l2,0.9v2.3l-2,0.9H140z M141.1,74.6H140v1.7h1.1V74.6z"/>
</g>
<rect x="139.2" y="1" class="st7" width="24.2" height="15.1"/>
<text transform="matrix(1 0 0 1 139.2051 7.6006)" class="st4 st8 st9">®</text>
</svg>
